<svg width="24" height="24" viewBox="0 0 24 24" fill="none" xmlns="http://www.w3.org/2000/svg">
<g clip-path="url(#clip0_32_37)">
<path d="M1.63201 11.394V19.9824H5.26801L5.45161 20.004C8.82721 20.7912 11.064 21.3588 12.1788 21.7104C13.6596 22.1772 14.2116 22.2912 15.216 22.3584C15.9672 22.41 16.8204 22.1208 17.2092 21.7248C17.424 21.5064 17.5848 21.0576 17.6484 20.3616C17.6616 20.2157 17.7138 20.076 17.7995 19.9571C17.8852 19.8382 18.0013 19.7446 18.1356 19.686C18.4344 19.5564 18.6828 19.3452 18.8904 19.038C19.0824 18.7572 19.2072 18.234 19.23 17.4768C19.234 17.3376 19.2735 17.2017 19.3447 17.082C19.4159 16.9624 19.5164 16.8628 19.6368 16.7928C20.3352 16.3884 20.6808 15.9324 20.7528 15.3972C20.832 14.8056 20.64 14.1396 20.1372 13.3812C20.0192 13.2034 19.9753 12.9865 20.0147 12.7767C20.0542 12.567 20.1739 12.3809 20.3484 12.258C20.8296 11.9196 21.0936 11.4492 21.1596 10.782C21.2652 9.71882 20.5872 8.93282 19.0524 8.77562C17.6855 8.64042 16.3053 8.75551 14.9796 9.11522C14.8292 9.15452 14.6708 9.15005 14.5228 9.10234C14.3749 9.05463 14.2437 8.96567 14.1446 8.84591C14.0455 8.72615 13.9827 8.58059 13.9635 8.42634C13.9444 8.27209 13.9696 8.11558 14.0364 7.97522C14.6364 6.70562 14.97 5.65802 15.048 4.84682C15.15 3.77042 14.9016 2.99042 14.3208 2.34722C13.8804 1.86002 13.176 1.58162 12.912 1.63922C12.564 1.71362 12.3372 1.91522 12.042 2.62082C11.868 3.03842 11.784 3.39362 11.64 4.22282C11.502 5.01002 11.4264 5.36522 11.2692 5.83082C10.7952 7.24202 9.63241 8.70482 8.07121 9.71402C6.97705 10.4205 5.79121 10.9736 4.54681 11.358C4.46907 11.382 4.38816 11.3941 4.30681 11.394H1.63201ZM1.58161 21.618C1.19401 21.6288 0.846013 21.5424 0.554413 21.3384C0.182413 21.078 0.0072125 20.6676 0.0036125 20.1948L0.0072125 11.4072C-0.0335875 10.9392 0.104412 10.5096 0.430813 10.1904C0.736813 9.89042 1.13641 9.74882 1.55881 9.75842H4.18081C5.24144 9.42047 6.25264 8.94352 7.18801 8.34002C8.44561 7.52642 9.37201 6.36002 9.72601 5.30882C9.84721 4.94642 9.91201 4.64642 10.0344 3.94082C10.2 2.99402 10.3032 2.55362 10.5408 1.98722C11.0328 0.808822 11.6784 0.232822 12.5688 0.0396221C13.4448 -0.149978 14.7204 0.355222 15.5268 1.24802C16.4208 2.23682 16.8156 3.47402 16.6692 5.00282C16.6068 5.66042 16.4244 6.39602 16.1244 7.21562C17.1489 7.06631 18.188 7.04374 19.218 7.14842C21.6264 7.39442 22.9788 8.96282 22.782 10.9452C22.6956 11.7996 22.386 12.5256 21.8592 13.0956C22.302 13.9488 22.4784 14.7924 22.368 15.6156C22.2408 16.5636 21.7128 17.3532 20.8344 17.9664C20.766 18.798 20.5752 19.4616 20.2368 19.9584C19.9702 20.3598 19.6223 20.7007 19.2156 20.9592C19.086 21.78 18.8136 22.422 18.3684 22.8732C17.6304 23.6244 16.3116 24.072 15.1068 23.9904C13.9632 23.9136 13.2864 23.7744 11.6904 23.2704C10.638 22.938 8.45881 22.386 5.17441 21.618H1.58041H1.58161ZM3.62281 11.0208C3.6225 10.9135 3.64337 10.8071 3.68424 10.7078C3.7251 10.6085 3.78516 10.5183 3.86096 10.4423C3.93677 10.3662 4.02683 10.3059 4.12599 10.2648C4.22515 10.2236 4.33145 10.2024 4.43881 10.2024C4.54597 10.2027 4.65202 10.2242 4.7509 10.2655C4.84978 10.3068 4.93956 10.3671 5.01511 10.4431C5.09066 10.5191 5.1505 10.6092 5.19122 10.7084C5.23193 10.8075 5.25273 10.9137 5.25241 11.0208V20.2344C5.25257 20.3416 5.23162 20.4477 5.19076 20.5468C5.1499 20.6458 5.08992 20.7359 5.01426 20.8118C4.9386 20.8877 4.84873 20.9479 4.74979 20.989C4.65085 21.0302 4.54477 21.0515 4.43761 21.0516C4.33045 21.0515 4.22438 21.0302 4.12543 20.989C4.02649 20.9479 3.93663 20.8877 3.86096 20.8118C3.7853 20.7359 3.72533 20.6458 3.68447 20.5468C3.64361 20.4477 3.62265 20.3416 3.62281 20.2344V11.0208Z" fill="black"/>
</g>
<defs>
<clipPath id="clip0_32_37">
<rect width="24" height="24" fill="white"/>
</clipPath>
</defs>
</svg>
